<?xml version="1.0" encoding="UTF-8"?>
<svg xmlns="http://www.w3.org/2000/svg" xmlns:xlink="http://www.w3.org/1999/xlink" width="px" height="px" viewBox="0 0 768 768" version="1.1">
<g id="surface1">
<path style=" stroke:none;fill-rule:nonzero;fill:rgb(0%,0%,0%);fill-opacity:1;" d="M 607.996094 127.996094 C 617.160156 127.996094 624.785156 131.035156 630.867188 137.117188 C 636.949219 143.203125 639.988281 150.824219 639.988281 159.988281 C 639.988281 168.992188 636.90625 176.574219 630.742188 182.738281 L 429.234375 383.984375 L 630.742188 585.230469 C 636.90625 591.394531 639.988281 598.980469 639.988281 607.980469 C 639.988281 617.144531 636.949219 624.769531 630.867188 630.851562 C 624.785156 636.933594 617.160156 639.972656 607.996094 639.972656 C 598.992188 639.972656 591.410156 636.890625 585.246094 630.726562 L 384 429.21875 L 182.753906 630.726562 C 176.589844 636.890625 169.007812 639.972656 160.003906 639.972656 C 150.839844 639.972656 143.214844 636.933594 137.132812 630.851562 C 131.050781 624.769531 128.011719 617.144531 128.011719 607.980469 C 128.011719 598.980469 131.09375 591.394531 137.257812 585.230469 L 338.765625 383.984375 L 137.257812 182.738281 C 131.09375 176.574219 128.011719 168.992188 128.011719 159.988281 C 128.011719 150.824219 131.050781 143.203125 137.132812 137.117188 C 143.214844 131.035156 150.839844 127.996094 160.003906 127.996094 C 169.007812 127.996094 176.589844 131.078125 182.753906 137.242188 L 384 338.75 L 585.246094 137.242188 C 591.410156 131.078125 598.992188 127.996094 607.996094 127.996094 Z M 607.996094 127.996094 "/>
</g>
</svg>
